<svg xmlns="http://www.w3.org/2000/svg" xmlns:xlink="http://www.w3.org/1999/xlink" width="129" height="105" viewBox="0 0 129 105">
    <defs>
        <path id="a" d="M.132.327h53.557v55.696H.132z"/>
        <path id="c" d="M.216.536h87.84v91.347H.216z"/>
    </defs>
    
        
            <path fill="#0A9E79" d="M27.894 70.261s.92 1.43 2.277 2.917c.523.573 1.594 1.696 1.897 1.331.307-.368-1.382-3.533-1.382-3.533l1.296.329s.657 2.018.837 2.904c.263 1.292.014 1.875.014 1.875l.003.007c1.062 1.003 2.03 1.659 2.573 1.41 1.696-.778-.852-9.548-.852-9.548l2.108-.722s.551 8.259 2.367 7.834c1.816-.427 2.446-9.466 2.446-9.466l1.406.218s-.975 6.922-.05 7.171c1.03.277 2.445-6.802 2.445-6.802l2.128.328s-3.227 7.189-3.006 12.41c.22 5.223 5.083 12.582 5.083 12.582s-.528 1.617-2.405 1.926c-.285.596-2.184 3.757-6.217 1.8-.582.333-1.538-.244-1.538-.244s-.673-8.795-3.702-13.054c-3.03-4.259-9.639-8.527-9.639-8.527l1.91-3.146z"/>
            <path fill="#028F6C" d="M25.983 73.407l1.91-3.146s.92 1.43 2.278 2.917c.523.573 1.593 1.696 1.897 1.332.306-.369-1.382-3.534-1.382-3.534l1.296.33s.657 2.017.837 2.903c.263 1.291.014 1.875.014 1.875l.003.007c1.063 1.003 2.03 1.659 2.573 1.41a.641.641 0 0 0 .204-.162c1.007 1.532 2.437 4.197 2.92 6.46.76 3.561 2.373 10.53 6.778 11.525-1.013.595-2.473.866-4.45-.092-.58.333-1.537-.244-1.537-.244s-.673-8.794-3.702-13.053c-3.029-4.26-9.639-8.528-9.639-8.528M34.558 67.952l2.108-.721s.55 8.26 2.366 7.834c1.816-.427 2.446-9.465 2.446-9.465l1.406.217s-.975 6.923-.05 7.17c1.029.278 2.445-6.801 2.445-6.801l2.128.328s-2.216 4.94-2.849 9.605c-.649-.431-1.213-1.011-1.556-1.596 0 0-2.443 2.848-7.051 1.868.314-2.556-1.393-8.439-1.393-8.439z"/>
            <path fill="#10B48B" d="M45.224 85.45c-.233.068.04 2.563.74 3.79.7 1.23 1.977 3.005 2.458 2.694.481-.311-.985-2.275-1.529-3.258-.543-.984-1.397-3.307-1.67-3.226"/>
            <g transform="scale(-1 1) rotate(-28 51.834 159.988)">
                <mask id="b" fill="#fff">
                    <use xlink:href="#a"/>
                </mask>
                <path fill="#007759" d="M50.834 26.813c-.906-1.127-3.006-1.908-4.805-1.56 1.387-1.834.648-4.886-1.001-5.867.17-2.6-.358-4.408-2.051-6.218-3.138-3.356-7.649-4.656-11.853-3.852 1.179-1.708-.3-4.476-1.456-5.309-2.181-1.571-4.538-1.815-7.033-1.434.001 0-1.962-3.138-4.718-1.996-1.407.584-.817 2.693-.817 2.693C8.825-.704 5.15 4.849 6.092 6.814c-3.266.858-3.57 3.665-2.427 5.51-.006-.004-1.064-.238-1.449.374-.466.74-.147 2.518 2.345 2.891a9.654 9.654 0 0 0-1.359 1.059c-3.9 3.647-4.887 12.738 1.852 15.486.408 2.284 4.811 2.642 6.852 1.015a12.845 12.845 0 0 0 3.19 6.095 12.837 12.837 0 0 0 5.868 3.59c-.929 3.173-.264 6.68 2.158 9.27.532 4.115 6.757 5.29 11.157 2.07.392 1.1 2.689 2.796 4.134 1.078 1.69-2.01-.448-3.945-.448-3.945 3.007 2.549 9.104 2.977 11.364-2.175 4.392-1.83 6.427-7.312 1.471-10.167 2.309-4.759 2.496-9.084.034-12.152z" mask="url(#b)"/>
            </g>
            <path fill="#05664D" d="M2.853 62.995c-1.656-2.017-2.444-4.574-1.185-6.743l.022.065c2.675 7.805 11.905 5.761 11.905 5.761 5.756 3.87 13.451.29 13.451.29 6.021 5.193 15.52-1.597 15.52-1.597 13.04 6.698 15.418-6.326 15.418-6.326a9.78 9.78 0 0 1 .692 1.577c1.731 5.051-1.67 13.543-8.911 12.805-1.433 1.826-5.49.075-6.528-2.32a12.834 12.834 0 0 1-5.679 3.886 12.835 12.835 0 0 1-6.868.414c-.67 3.238-2.91 6.024-6.263 7.174-2.401 3.384-8.551 1.534-10.829-3.408v.001c-.895.797-3.68 1.203-4.15-.992-.55-2.567 2.333-3.301 2.333-3.301-3.852.838-9.351-1.675-8.928-7.286M43.086 43.071c-.293.201-.545.464-.755.758a3.562 3.562 0 0 0-.494.972l.458-.013a6.375 6.375 0 0 0-.412-.99 7.115 7.115 0 0 0-.557-.902 5.865 5.865 0 0 0-.687-.805 5.073 5.073 0 0 0-.821-.663c.194.294.39.576.572.866.186.285.36.575.533.865.166.293.337.583.486.885.159.293.301.606.432.9l.297.665.161-.68a6.158 6.158 0 0 1 .787-1.858"/>
            <path fill="#05664D" d="M16.084 55.646a3.643 3.643 0 0 0-.96.61c-.286.247-.548.524-.777.824l.461.085a3.99 3.99 0 0 0-.263-.67 5.049 5.049 0 0 0-.35-.61 4.27 4.27 0 0 0-.956-1.023c.09.219.2.418.287.628l.282.61c.096.201.176.408.265.608.085.2.164.414.231.602l.173.484.29-.4c.422-.584.848-1.156 1.317-1.748M34.41 56.412a4.98 4.98 0 0 0-.676 1.955c-.027.236-.04.477.026.754l.457-.22a4.584 4.584 0 0 0-.74-.69c-.27-.2-.564-.368-.88-.487l.62.76c.203.245.407.498.592.738l.647.834-.19-1.055a2.79 2.79 0 0 1-.012-.589c.02-.211.03-.43.059-.648.045-.44.084-.887.096-1.352M51.555 48.955c-.071.279-.073.57-.023.854.051.284.157.568.332.818l.204-.415a2.359 2.359 0 0 0-.551.076 2.751 2.751 0 0 0-.511.177c-.33.15-.624.377-.842.663.18-.04.336-.097.505-.129.161-.042.32-.08.48-.11.156-.042.317-.061.473-.093.154-.027.322-.046.46-.062l.48-.053-.275-.362c-.288-.378-.5-.847-.732-1.364"/>
        
        <path fill="#0A9E79" d="M83.515 62.166s-1.51 2.347-3.736 4.785c-.857.938-2.613 2.781-3.11 2.183-.503-.604 2.266-5.795 2.266-5.795l-2.126.54s-1.077 3.309-1.372 4.762c-.431 2.118-.024 3.076-.024 3.076-1.746 1.656-3.333 2.731-4.224 2.323-2.781-1.276 1.397-15.66 1.397-15.66l-3.458-1.184s-.903 13.546-3.882 12.848c-2.977-.699-4.01-15.524-4.01-15.524l-2.307.357s1.6 11.354.084 11.762c-1.69.453-4.011-11.157-4.011-11.157l-3.49.538s5.291 11.79 4.93 20.355c-.361 8.565-8.338 20.634-8.338 20.634s.867 2.653 3.945 3.16c.468.977 3.583 6.162 10.197 2.951.954.547 2.522-.4 2.522-.4s1.103-14.424 6.071-21.409c4.969-6.985 15.809-13.985 15.809-13.985l-3.133-5.16z"/>
        <path fill="#028F6C" d="M86.648 67.326l-3.133-5.16s-1.51 2.346-3.735 4.784c-.859.94-2.614 2.782-3.111 2.185-.503-.605 2.266-5.796 2.266-5.796l-2.125.54s-1.078 3.309-1.374 4.762c-.43 2.118-.023 3.075-.023 3.075l-.005.012c-1.742 1.645-3.328 2.72-4.219 2.312a1.052 1.052 0 0 1-.334-.265c-1.653 2.512-3.997 6.883-4.79 10.596-1.246 5.84-3.891 17.27-11.116 18.9 1.66.977 4.056 1.422 7.297-.151.954.547 2.521-.4 2.521-.4s1.104-14.423 6.072-21.408c4.968-6.986 15.81-13.986 15.81-13.986M72.585 58.38l-3.457-1.184s-.904 13.546-3.882 12.849c-2.978-.7-4.011-15.524-4.011-15.524l-2.306.356s1.599 11.354.083 11.761c-1.688.454-4.01-11.155-4.01-11.155l-3.49.537s3.633 8.103 4.672 15.753c1.063-.706 1.99-1.658 2.552-2.616 0 0 4.007 4.67 11.564 3.062-.515-4.192 2.285-13.84 2.285-13.84z"/>
        <path fill="#10B48B" d="M55.092 87.077c.382.113-.065 4.203-1.213 6.218-1.149 2.015-3.244 4.926-4.032 4.417-.79-.51 1.615-3.73 2.506-5.344.891-1.613 2.292-5.423 2.739-5.291"/>
        <g transform="rotate(-28 43.22 -23.361)">
            <mask id="d" fill="#fff">
                <use xlink:href="#c"/>
            </mask>
            <path fill="#007759" d="M83.372 43.976c-1.485-1.85-4.93-3.13-7.88-2.56 2.274-3.006 1.062-8.013-1.643-9.62.28-4.266-.587-7.23-3.363-10.199-5.147-5.504-12.545-7.637-19.439-6.318 1.933-2.8-.494-7.34-2.39-8.707-3.576-2.577-7.442-2.976-11.533-2.352.001-.001-3.219-5.147-7.739-3.273-2.308.958-1.34 4.416-1.34 4.416-13.571-6.518-19.6 2.589-18.053 5.813-5.358 1.407-5.856 6.01-3.98 9.036-.012-.007-1.746-.39-2.377.613-.765 1.216-.242 4.13 3.846 4.742-.78.505-1.528 1.08-2.229 1.737-6.397 5.982-8.015 20.891 3.037 25.399.67 3.746 7.89 4.332 11.238 1.664a21.067 21.067 0 0 0 5.23 9.997 21.054 21.054 0 0 0 9.626 5.888c-1.523 5.204-.433 10.956 3.54 15.204.872 6.75 11.081 8.677 18.298 3.395.643 1.802 4.41 4.585 6.78 1.768 2.772-3.296-.735-6.47-.735-6.47 4.932 4.18 14.931 4.882 18.639-3.568 7.203-3 10.54-11.992 2.412-16.674 3.786-7.806 4.093-14.899.055-19.93z" mask="url(#d)"/>
        </g>
        <path fill="#05664D" d="M124.584 50.25c2.716-3.309 4.008-7.503 1.943-11.06l-.036.106c-4.388 12.802-19.525 9.45-19.525 9.45-9.44 6.347-22.062.475-22.062.475C75.03 57.737 59.45 46.6 59.45 46.6 38.064 57.587 34.164 36.227 34.164 36.227c-.45.812-.823 1.676-1.135 2.585-2.84 8.286 2.739 22.213 14.615 21.003 2.35 2.994 9.005.123 10.707-3.806a21.05 21.05 0 0 0 9.313 6.374 21.05 21.05 0 0 0 11.265.679c1.097 5.31 4.771 9.88 10.272 11.766 3.938 5.55 14.024 2.516 17.76-5.59v.002c1.468 1.307 6.037 1.973 6.807-1.627.9-4.21-3.826-5.415-3.826-5.415 6.316 1.376 15.336-2.746 14.642-11.948"/>
        <path fill="#035540" d="M58.598 17.572c.48.33.893.761 1.239 1.242.346.481.621 1.021.81 1.596l-.751-.023c.175-.582.417-1.097.675-1.622.277-.511.565-1.016.914-1.48a9.62 9.62 0 0 1 1.126-1.32 8.32 8.32 0 0 1 1.347-1.088c-.318.483-.64.945-.938 1.42-.305.468-.591.943-.875 1.42-.272.48-.553.956-.796 1.45-.261.481-.495.994-.708 1.476l-.488 1.092-.264-1.115a10.099 10.099 0 0 0-1.291-3.048M102.883 38.196c.58.239 1.1.597 1.574 1 .47.406.9.86 1.276 1.353l-.757.138c.111-.404.265-.746.432-1.099.163-.35.365-.68.574-1.001a7.002 7.002 0 0 1 1.567-1.677c-.148.36-.326.685-.47 1.031l-.463 1.001c-.158.329-.289.667-.435.997-.138.326-.269.678-.379.986l-.283.793-.475-.655a80.255 80.255 0 0 0-2.161-2.867M72.829 39.453c.397.653.687 1.35.889 2.08.093.365.18.737.218 1.125.044.388.065.783-.043 1.237l-.75-.361a7.519 7.519 0 0 1 1.214-1.131 5.961 5.961 0 0 1 1.444-.798l-1.018 1.247c-.332.4-.667.816-.97 1.209l-1.061 1.369.312-1.732c.048-.269.037-.622.02-.965-.032-.347-.05-.705-.098-1.064a28.987 28.987 0 0 1-.157-2.216M44.708 27.223c.116.456.12.935.037 1.4a3.393 3.393 0 0 1-.543 1.341l-.335-.68c.332.003.61.055.904.125.291.06.567.175.838.29.54.245 1.023.619 1.38 1.088-.294-.065-.551-.16-.827-.212a12.16 12.16 0 0 0-.788-.182c-.256-.067-.52-.1-.777-.151-.252-.044-.528-.075-.754-.101l-.786-.089.45-.592c.473-.621.82-1.39 1.2-2.237"/>
</svg>
